<svg viewBox="0 0 100 100" xmlns="http://www.w3.org/2000/svg">
    <g fill="none" stroke="black" stroke-linecap="round">
        {/* Denser Background Network */}
        <path d="M 10 35 Q 30 30, 50 50 T 90 40" stroke-width="0.5" opacity="0.08" />
        <path d="M 10 65 Q 30 70, 50 50 T 90 60" stroke-width="0.5" opacity="0.08" />
        <path d="M 15 40 Q 35 35, 50 50 T 85 45" stroke-width="0.7" opacity="0.12" />
        <path d="M 15 60 Q 35 65, 50 50 T 85 55" stroke-width="0.7" opacity="0.12" />
        <path d="M 15 50 Q 30 32, 50 50 T 85 50" stroke-width="1.0" opacity="0.18" />
        <path d="M 15 50 Q 30 68, 50 50 T 85 50" stroke-width="1.0" opacity="0.18" />
        
        {/* Refined Primary Pulse Paths */}
        <path d="M 20 50 Q 40 45, 50 50 T 80 50" stroke-width="2.2" opacity="0.9" />
        <path d="M 22 50 Q 42 38, 52 52 T 78 48" stroke-width="1.4" opacity="0.5" />
        <path d="M 22 50 Q 42 62, 52 48 T 78 52" stroke-width="1.4" opacity="0.5" />
        <path d="M 25 50 Q 45 58, 55 45 T 75 50" stroke-width="1.0" opacity="0.3" />
        <path d="M 25 50 Q 45 42, 55 55 T 75 50" stroke-width="1.0" opacity="0.3" />
        
        {/* Refined Connection Nodes */}
        <circle cx="50" cy="50" r="2.2" fill="black" stroke="none" />
        <circle cx="20" cy="50" r="1.2" fill="black" stroke="none" opacity="0.4" />
        <circle cx="80" cy="50" r="1.2" fill="black" stroke="none" opacity="0.4" />
    </g>
</svg>